# xmcd CD database file
#
# Track frame offsets:
#	150
#	10925
#	20242
#	32752
#	45597
#	57062
#	68635
#	82040
#	92712
#	108232
#
# Disc length: 1601 seconds
#
# Revision: 0
# Processed by: cddbd v1.5.1PL0 Copyright (c) Steve Scherf et al.
# Submitted via: CDex 1.50
#
DISCID=78063f0a
DTITLE=Bob Wills and The Texas Playboys - A Tribute To Bob Wills (MGM GAS-141 reissue)
DYEAR=1900
DGENRE=Country
TTITLE0=Texas Blues
TTITLE1=Cadillac In Model 'A'
TTITLE2=Boot Heel Drag
TTITLE3=Mean Woman With Green Eyes
TTITLE4=Waltzing In Old San Antone
TTITLE5=I Ain't Got Nobody (And Nobody Cares For Me)
TTITLE6=Doin' The Bunny Hop
TTITLE7=B. Bowman Hop
TTITLE8=St. Louis Blues
TTITLE9=My Little Rock Candy Baby
EXTD=
EXTT0=
EXTT1=
EXTT2=
EXTT3=
EXTT4=
EXTT5=
EXTT6=
EXTT7=
EXTT8=
EXTT9=
PLAYORDER=
